<svg xmlns="http://www.w3.org/2000/svg" viewBox="0 0 80 80" x="0px" y="0px"><title>snow-snowman-smile-christmas</title><g><g><path d="M53.478,45.01a1.2,1.2,0,0,0-.056-.276l-.518-1.5.525-1.618a1.2,1.2,0,0,0,.059-.37,2.483,2.483,0,0,0-.773-1.808,14.16,14.16,0,0,0-.682-13.792,3.305,3.305,0,0,0,2.664-2.47c.383-1.428-.72-2.883-3.269-4.334L54.654,12A3.6,3.6,0,0,0,52.33,6.984L41.655,4.124A3.6,3.6,0,0,0,37.135,7.3l-.623,7.535c-2.933-.019-4.616.691-5,2.119a3.5,3.5,0,0,0,1.661,3.949,13.948,13.948,0,0,0-5.74,18.819,3.142,3.142,0,0,0-.322,1.385V43.66a3.139,3.139,0,0,0,.09.735A18.082,18.082,0,0,0,20.8,58c0,9.925,8.613,18,19.2,18s19.2-8.075,19.2-18A17.941,17.941,0,0,0,53.478,45.01ZM50.5,43.632l.542,1.573a.093.093,0,0,1-.069.018,21.462,21.462,0,0,1-2.306-.392,12.825,12.825,0,0,1-.493-4.133,21.3,21.3,0,0,0,2.812.444.112.112,0,0,1,.06.023l-.553,1.7A1.2,1.2,0,0,0,50.5,43.632ZM34.9,57.182l-.28-.14a2.511,2.511,0,0,0-2.235,0l-.28.14V55.119l2.794.869Zm-5.391-16.07a.739.739,0,0,1,.275-.58.73.73,0,0,1,.615-.154,9.63,9.63,0,0,1,1.1.3,15.732,15.732,0,0,0,.3,4.075,10.537,10.537,0,0,0-1.663-.354.737.737,0,0,1-.631-.737Zm6.512.207a18.745,18.745,0,0,0,.86,4.343,9.724,9.724,0,0,1-2.387-.156,12.519,12.519,0,0,1-.611-4.3C34.447,41.248,35.223,41.3,36.025,41.319Zm-3.915,9.8,2.794.869v1.483l-2.794-.869Zm7.122-6a16.414,16.414,0,0,1-.8-3.849c.144-.014.28-.03.4-.05a10.7,10.7,0,0,0,1.783-.473l.276-.091a18.614,18.614,0,0,0,.693,3.807A12.816,12.816,0,0,0,39.621,45Zm4.81-.837a16.282,16.282,0,0,1-.771-4.078c.194-.01.4-.016.623-.016a18.21,18.21,0,0,1,1.9.091,15.765,15.765,0,0,0,.292,4.107C45.493,44.333,44.826,44.294,44.043,44.29ZM35.858,22.271c1.71.656,3.807,1.22,6.161,1.851a52.577,52.577,0,0,0,7.125,1.594,11.785,11.785,0,0,1,1.273,12.95c-.682-.091-1.258-.213-1.858-.34A19.767,19.767,0,0,0,43.9,37.8a11.214,11.214,0,0,0-4.035.682,8.538,8.538,0,0,1-1.4.38,31.018,31.018,0,0,1-5.059-.1c-.276-.078-.536-.165-.809-.256a13.589,13.589,0,0,0-1.709-.481,3.129,3.129,0,0,0-1.568.089,11.812,11.812,0,0,1-1.1-4.962A11.964,11.964,0,0,1,35.858,22.271ZM40,73.6c-9.264,0-16.8-7-16.8-15.6a15.654,15.654,0,0,1,5.419-11.656,3.081,3.081,0,0,0,1.091.41V59.124A1.2,1.2,0,0,0,31.447,60.2l2.017-1.008a.1.1,0,0,1,.088,0L35.568,60.2A1.2,1.2,0,0,0,37.3,59.124V48.043a7.02,7.02,0,0,0,1.819-.387c.47-.117.87-.25,1.257-.379a9.394,9.394,0,0,1,3.517-.588,17.952,17.952,0,0,1,4.246.484,24,24,0,0,0,2.58.437,2.5,2.5,0,0,0,1.6-.376A15.492,15.492,0,0,1,56.8,58C56.8,66.6,49.264,73.6,40,73.6Z"></path><path d="M35.2,30.4a1.2,1.2,0,0,0,1.2-1.2V28A1.2,1.2,0,1,0,34,28v1.2A1.2,1.2,0,0,0,35.2,30.4Z"></path><path d="M42.4,30.4a1.2,1.2,0,0,0,1.2-1.2V28a1.2,1.2,0,0,0-2.4,0v1.2A1.2,1.2,0,0,0,42.4,30.4Z"></path><circle cx="40" cy="51.329" r="1.299"></circle><circle cx="40" cy="56.523" r="1.299"></circle><circle cx="40" cy="61.717" r="1.299"></circle><path d="M35.551,33.452a1.2,1.2,0,0,0,0,1.7,4.879,4.879,0,0,0,3.332,1.412,4.405,4.405,0,0,0,3.165-1.412,1.2,1.2,0,0,0-1.7-1.7,2.07,2.07,0,0,1-3.109-.006A1.2,1.2,0,0,0,35.551,33.452Z"></path></g></g></svg>